<svg width="72" height="16" viewBox="0 0 72 16" fill="none" xmlns="http://www.w3.org/2000/svg">
    <path
    d="M71.4997 15.874H69.596V9.54133C69.596 8.96705 69.4996 8.43157 69.3068 7.93489C69.1301 7.42269 68.865 6.98034 68.5115 6.60783C68.1581 6.23532 67.7243 5.94042 67.2102 5.72312C66.7122 5.50582 66.1499 5.39717 65.5233 5.39717C64.945 5.39717 64.4068 5.50582 63.9087 5.72312C63.4107 5.94042 62.9769 6.24308 62.6074 6.63111C62.2379 7.00362 61.9407 7.46149 61.7158 8.00473C61.4908 8.53245 61.3704 9.1145 61.3543 9.75087V15.874H59.4746V3.96891H61.3543V6.37501C61.5149 6.08011 61.7399 5.77744 62.029 5.46702C62.3182 5.14107 62.6556 4.85393 63.0412 4.60559C63.4428 4.34173 63.8846 4.1322 64.3666 3.97699C64.8486 3.80625 65.3627 3.72089 65.9089 3.72089C66.7282 3.72089 67.4753 3.86834 68.1501 4.16324C68.8409 4.44262 69.4273 4.84617 69.9092 5.37389C70.4073 5.90161 70.7929 6.53022 71.066 7.25972C71.3552 7.98921 71.4997 8.79631 71.4997 9.68102V15.874Z"
    fill="#BEBDAD"
    />
    <path
    d="M45.1484 9.84779C45.1484 8.99359 45.3086 8.19376 45.6291 7.44828C45.9655 6.7028 46.4141 6.05827 46.9749 5.51469C47.5516 4.95559 48.2245 4.52072 48.9935 4.21011C49.7625 3.88396 50.5876 3.72089 51.4688 3.72089C52.35 3.72089 53.1751 3.88396 53.9441 4.21011C54.7131 4.52072 55.386 4.95559 55.9628 5.51469C56.5395 6.05827 56.9881 6.7028 57.3085 7.44828C57.645 8.19376 57.8132 8.99359 57.8132 9.84779C57.8132 10.702 57.645 11.5018 57.3085 12.2473C56.9881 12.9928 56.5395 13.6451 55.9628 14.2042C55.386 14.7633 54.7131 15.2059 53.9441 15.5321C53.1751 15.8427 52.35 15.998 51.4688 15.998C50.5876 15.998 49.7625 15.8427 48.9935 15.5321C48.2245 15.2059 47.5516 14.7633 46.9749 14.2042C46.4141 13.6451 45.9655 12.9928 45.6291 12.2473C45.3086 11.5018 45.1484 10.702 45.1484 9.84779ZM47.0229 9.84779C47.0229 10.4535 47.1351 11.0204 47.3594 11.5484C47.5997 12.0765 47.9201 12.5346 48.3206 12.9229C48.7212 13.3112 49.1938 13.6218 49.7385 13.8547C50.2832 14.0722 50.86 14.1809 51.4688 14.1809C52.0936 14.1809 52.6704 14.0722 53.1991 13.8547C53.7438 13.6218 54.2164 13.3112 54.617 12.9229C55.0335 12.5346 55.3539 12.0765 55.5782 11.5484C55.8186 11.0204 55.9387 10.4535 55.9387 9.84779C55.9387 9.24209 55.8186 8.68298 55.5782 8.17046C55.3539 7.64241 55.0335 7.18426 54.617 6.79599C54.2164 6.39218 53.7438 6.08157 53.1991 5.86414C52.6704 5.63118 52.0936 5.51469 51.4688 5.51469C50.86 5.51469 50.2832 5.63118 49.7385 5.86414C49.1938 6.08157 48.7212 6.39218 48.3206 6.79599C47.9201 7.18426 47.5997 7.64241 47.3594 8.17046C47.1351 8.68298 47.0229 9.24209 47.0229 9.84779Z"
    fill="#BEBDAD"
    />
    <path
    d="M43.356 15.8761H41.3859V9.00092C41.3859 8.51763 41.3138 8.05773 41.1697 7.62121C41.0255 7.18469 40.8093 6.80274 40.521 6.47535C40.2326 6.14796 39.8803 5.89072 39.4638 5.70364C39.0634 5.51656 38.5989 5.42303 38.0703 5.42303C37.5898 5.42303 37.1413 5.52436 36.7248 5.72703C36.3084 5.91411 35.948 6.17134 35.6437 6.49873C35.3553 6.82612 35.1231 7.20808 34.9469 7.6446C34.7867 8.06552 34.7066 8.51763 34.7066 9.00092V15.8761H32.7365V9.00092C32.7365 8.5644 32.6564 8.13568 32.4962 7.71475C32.3521 7.27823 32.1359 6.89628 31.8475 6.56889C31.5592 6.22591 31.2068 5.95308 30.7904 5.75041C30.3739 5.53215 29.9014 5.42303 29.3729 5.42303C28.8443 5.42303 28.3638 5.53215 27.9313 5.75041C27.5148 5.95308 27.1544 6.2337 26.8501 6.59227C26.5618 6.95084 26.3295 7.37177 26.1534 7.85506C25.9932 8.32276 25.9131 8.82164 25.9131 9.3517V15.8761H24.0391V3.97103H25.9131V6.05442C26.0573 5.75821 26.2495 5.462 26.4897 5.16579C26.73 4.86958 27.0183 4.60455 27.3547 4.3707C27.691 4.13685 28.0674 3.94977 28.4839 3.80946C28.9003 3.66915 29.3408 3.599 29.8053 3.599C30.7343 3.599 31.5512 3.84064 32.256 4.32393C32.9607 4.80722 33.4973 5.42303 33.8657 6.17134C34.2982 5.42303 34.8989 4.80722 35.6677 4.32393C36.4365 3.84064 37.2854 3.599 38.2145 3.599C38.9673 3.599 39.656 3.73931 40.2807 4.01993C40.9214 4.28496 41.466 4.65912 41.9145 5.14241C42.379 5.62569 42.7314 6.20252 42.9716 6.87289C43.2279 7.52767 43.356 8.23701 43.356 9.00092V15.8761Z"
    fill="#BEBDAD"
    />
    <path d="M8.94318 15.8734H0.5V0H2.50277V14.199H8.94318V15.8734Z" fill="#BEBDAD" />
    <path
    d="M22.5036 9.85794C22.5036 9.96693 22.4956 10.0915 22.4796 10.2316C22.4796 10.3717 22.4635 10.4885 22.4314 10.5819H12.1972C12.1972 11.1269 12.3176 11.6251 12.5585 12.0766C12.7993 12.5281 13.1203 12.9173 13.5217 13.2443C13.923 13.5713 14.3805 13.8282 14.8942 14.015C15.408 14.2018 15.9377 14.2952 16.4836 14.2952C17.206 14.2952 17.8481 14.1863 18.41 13.9683C18.9719 13.7347 19.4615 13.4311 19.8789 13.0575L21.2033 14.1785C20.6093 14.7545 19.911 15.2061 19.1083 15.533C18.3217 15.8444 17.4387 16.0001 16.4595 16.0001C15.705 16.0001 14.9504 15.8678 14.1959 15.6031C13.4575 15.3384 12.7912 14.9492 12.1972 14.4354C11.6033 13.906 11.1217 13.2599 10.7524 12.497C10.3992 11.7185 10.2227 10.8155 10.2227 9.78788C10.2227 8.93155 10.3671 8.12972 10.6561 7.38239C10.9451 6.61948 11.3544 5.95778 11.8842 5.39728C12.43 4.83677 13.0802 4.40083 13.8347 4.08944C14.5892 3.76248 15.424 3.599 16.3391 3.599C17.2702 3.599 18.113 3.77026 18.8675 4.11279C19.6381 4.43975 20.2883 4.89127 20.818 5.46734C21.3638 6.02784 21.7812 6.68955 22.0702 7.45245C22.3592 8.19979 22.5036 9.00162 22.5036 9.85794ZM16.3632 5.25715C15.7371 5.25715 15.1672 5.36614 14.6534 5.58411C14.1397 5.78651 13.6983 6.06677 13.329 6.42486C12.9758 6.76739 12.6949 7.1722 12.4862 7.63929C12.2936 8.0908 12.1972 8.57346 12.1972 9.08725H20.5291C20.5291 8.60459 20.4247 8.13751 20.216 7.68599C20.0234 7.21891 19.7424 6.80632 19.3732 6.44822C19.02 6.09012 18.5866 5.80208 18.0729 5.58411C17.5591 5.36614 16.9892 5.25715 16.3632 5.25715Z"
    fill="#BEBDAD"
    />
</svg>